Coordinates
version=1
nRows=4
nColumns=63
inDegrees=yes

Units are S.I. units (second, meters, Newtons, ...)
If the header above contains a line with 'inDegrees', this indicates whether rotational values are in degrees (yes) or radians (no).

endheader
time	pelvis_tilt	pelvis_list	pelvis_rotation	pelvis_tx	pelvis_ty	pelvis_tz	hip_flexion_r	hip_adduction_r	hip_rotation_r	knee_angle_r	knee_angle_r_beta	ankle_angle_r	subtalar_angle_r	mtp_angle_r	hip_flexion_l	hip_adduction_l	hip_rotation_l	knee_angle_l	knee_angle_l_beta	ankle_angle_l	subtalar_angle_l	mtp_angle_l	L5_S1_Flex_Ext	L5_S1_Lat_Bending	L5_S1_axial_rotation	L4_L5_Flex_Ext	L4_L5_Lat_Bending	L4_L5_axial_rotation	L3_L4_Flex_Ext	L3_L4_Lat_Bending	L3_L4_axial_rotation	L2_L3_Flex_Ext	L2_L3_Lat_Bending	L2_L3_axial_rotation	L1_L2_Flex_Ext	L1_L2_Lat_Bending	L1_L2_axial_rotation	L1_T12_Flex_Ext	L1_T12_Lat_Bending	L1_T12_axial_rotation	Abs_r3	Abs_r2	Abs_r1	Abs_t1	Abs_t2	neck_flexion	neck_bending	neck_rotation	arm_flex_r	arm_add_r	arm_rot_r	elbow_flex_r	pro_sup_r	wrist_flex_r	wrist_dev_r	arm_flex_l	arm_add_l	arm_rot_l	elbow_flex_l	pro_sup_l	wrist_flex_l	wrist_dev_l
      0.00000000	      9.47780082	     -4.78836134	     90.92251553	      0.31123261	      1.08549361	      0.37561426	      2.16805719	      3.29442151	    -14.80997772	     15.16270255	      0.26463908	     45.81446624	     18.98931494	      0.00000000	      4.88112656	     -6.22448097	    -14.88860083	     19.96360232	      0.34843059	     48.28724760	     16.51697822	      0.00000000	      0.02452164	      0.50798048	      0.66532901	      0.04553913	      0.67561404	      0.70691207	      0.04028659	      1.23510374	      0.70691207	      0.02802578	      1.23510374	      0.58216288	      0.02277079	      1.03587380	      0.54057982	      0.01401166	      0.78686177	      0.49899676	      0.17515559	      5.74637681	      3.70036035	      0.00000000	      0.00000000	     22.95707687	     -3.53178166	     -4.29280119	     10.70086943	     -4.63891883	     59.61530014	     40.13797567	     17.73130521	     -0.24285432	      7.05183339	     20.13116735	      0.35475285	     78.28030591	     37.16102083	     38.26424124	     -8.09858645	     -4.97043684
      0.01666667	      9.17001993	     -5.37225671	     92.27005708	      0.30877045	      1.08421295	      0.37757942	      2.89237547	      2.76991128	    -16.20067559	     15.40483366	      0.26886507	     45.86192803	     18.88370786	      0.00000000	      6.26796682	     -5.67209090	    -13.17881484	     20.33699192	      0.35494747	     48.94504198	     17.43616059	      0.00000000	      0.12003844	      0.48930077	      0.32358209	      0.22292338	      0.65077003	      0.34380597	      0.19721115	      1.18968590	      0.34380597	      0.13719193	      1.18968590	      0.28313433	      0.11146769	      0.99778214	      0.26291045	      0.06858996	      0.75792690	      0.24268657	      0.85742256	      5.53506820	      1.79966653	      0.00000000	      0.00000000	     22.63015777	     -3.12399157	     -2.32397752	     10.36399104	     -4.05895291	     58.41155991	     39.42725130	     17.28386151	      0.90521620	      7.37357600	     19.46226555	     -0.14461847	     79.72911460	     36.85413133	     40.23485691	     -7.58700280	     -6.05923028
      0.03333333	      9.52476494	     -5.74951404	     94.24826610	      0.30586000	      1.08279455	      0.38016202	      3.31491823	      2.93320590	    -18.40880036	     15.39332632	      0.26866423	     45.77832092	     18.97695311	      0.00000000	      7.98665400	     -5.76796794	    -10.46162908	     21.70435490	      0.37881245	     49.53189033	     17.27896926	      0.00000000	      0.16057629	      0.54196243	     -0.15128008	      0.29820624	      0.72081003	     -0.16073509	      0.26381079	      1.31772745	     -0.16073509	      0.18352265	      1.31772745	     -0.13237007	      0.14911115	      1.10516979	     -0.12291507	      0.09175329	      0.83949981	     -0.11346006	      1.14698041	      6.13078741	     -0.84137443	      0.00000000	      0.00000000	     23.20918082	     -2.49444243	     -0.10563018	     10.36221655	     -3.91803154	     57.33459256	     39.17757486	     18.42410436	      1.81512780	      8.72359373	     18.41295135	     -0.16971353	     77.51144413	     36.23953308	     49.99273957	     -8.17856429	     -6.15866018
      0.05000000	      9.61966085	     -6.04794376	     95.33994360	      0.30430829	      1.08176768	      0.38207331	      3.72769435	      2.85773769	    -19.69934026	     15.56613748	      0.27168035	     45.77206608	     18.97846514	      0.00000000	      9.02421085	     -5.68914358	     -9.21592044	     22.44943550	      0.39181656	     49.73533452	     17.35190765	      0.00000000	      0.18963836	      0.55856704	     -0.41011826	      0.35217740	      0.74289416	     -0.43575065	      0.31155686	      1.35809990	     -0.43575065	      0.21673768	      1.35809990	     -0.35885347	      0.17609818	      1.13902991	     -0.33322108	      0.10835936	      0.86522035	     -0.30758869	      1.35456783	      6.31862207	     -2.28095471	      0.00000000	      0.00000000	     23.74296165	     -2.35630077	      1.19699725	     10.34844355	     -3.82072120	     56.63523438	     39.08042256	     18.19035514	      1.90000872	      9.73548897	     18.34813181	     -0.03582356	     77.87537318	     35.47531692	     55.78971620	     -9.01126625	     -6.98013009
